<?xml version="1.0" encoding="UTF-8" standalone="no"?>
<svg width="69px" height="20px" viewBox="0 0 69 20" version="1.1" xmlns="http://www.w3.org/2000/svg" xmlns:xlink="http://www.w3.org/1999/xlink">
    <!-- Generator: Sketch 39.1 (31720) - http://www.bohemiancoding.com/sketch -->
    <title>blogo</title>
    <desc>Created with Sketch.</desc>
    <defs></defs>
    <g id="Page-1" stroke="none" stroke-width="1" fill="none" fill-rule="evenodd">
        <g id="For-Organisations-Copy" transform="translate(-685.000000, -40.000000)">
            <g id="blogo" transform="translate(685.000000, 40.000000)">
                <g id="Layer_1">
                    <g id="Group" fill="#FFFFFF">
                        <path d="M9.69654112,13.1746672 C9.69654112,15.0544574 9.32083013,16.5469948 8.577402,17.6522791 C7.83397387,18.7575635 6.74681015,19.3061718 5.31591084,19.3061718 C4.13282091,19.3061718 3.1415834,19.0399355 2.35818601,18.5074627 C1.57478862,17.9749899 1.01521906,17.2650262 0.679477325,16.3775716 L0.679477325,10.0524405 C0.983243659,9.06817265 1.50284397,8.24526019 2.2302844,7.56756757 C2.95772483,6.88987495 3.98093774,6.55102864 5.29192929,6.55102864 C6.72282859,6.55102864 7.81798616,7.1399758 8.56940815,8.31787011 C9.32083013,9.49576442 9.69654112,11.0286406 9.69654112,12.9084308 L9.69654112,13.1746672 L9.69654112,13.1746672 Z M10.4,12.9084308 C10.4,10.7543364 9.9443505,9.03590157 9.04104535,7.7692618 C8.12974635,6.49455426 6.87471176,5.85720048 5.27594158,5.85720048 C4.22075327,5.85720048 3.29346656,6.10730133 2.51806303,6.60750303 C1.74265949,7.09963695 1.12713297,7.77732957 0.679477325,8.63251311 L0.679477325,0 L0,0 L0,19.8225091 L0.567563413,19.8225091 L0.655495772,17.5958048 C1.09515757,18.3380395 1.71068409,18.9189189 2.51006918,19.3545785 C3.30146042,19.7813635 4.23674097,20 5.30791699,20 C6.89069946,20 8.1377402,19.3860428 9.04104535,18.1605486 C9.9443505,16.9350545 10.4,15.2722872 10.4,13.1746672 L10.4,12.9084308 L10.4,12.9084308 Z" id="Shape"></path>
                        <rect id="Rectangle-path" x="14.4" y="0" width="0.8" height="20"></rect>
                        <path d="M28.2536585,19.0271519 L28.8,19.0271519 L28.8,5.6 L28.1287805,5.6 L28.1287805,14.8473715 C27.9258537,15.9551704 27.4497561,16.8429809 26.7160976,17.5186597 C25.9746341,18.1864818 24.9131707,18.5235355 23.5317073,18.5235355 C22.4078049,18.5235355 21.5102439,18.0906297 20.8546341,17.2342461 C20.1912195,16.3684344 19.8634146,15.0343616 19.8634146,13.2257423 L19.8634146,5.6 L19.2,5.6 L19.2,13.2053148 C19.2,15.2480647 19.582439,16.763628 20.355122,17.7386482 C21.1278049,18.7128827 22.1970732,19.2 23.555122,19.2 C24.6634146,19.2 25.6,18.9721548 26.3726829,18.5164645 C27.137561,18.0607741 27.7307317,17.4086655 28.1521951,16.5679954 L28.2536585,19.0271519 L28.2536585,19.0271519 Z" id="Shape"></path>
                        <path d="M41.2043036,7.68565887 C42.0709211,8.60568169 42.5001032,9.7639247 42.5001032,11.1521734 L42.5001032,11.5711124 L32.8435077,11.5711124 L32.8022402,11.497182 C32.9260427,10.0103594 33.4460133,8.77818597 34.3704053,7.79409013 C35.2865438,6.80013691 36.4502874,6.30726754 37.8368755,6.30726754 C39.2234635,6.30562464 40.3459396,6.76563605 41.2043036,7.68565887 L41.2043036,7.68565887 Z M40.6678261,19.5227382 C41.4593368,19.2105876 42.1286957,18.7423617 42.6800295,18.1344894 L42.3102727,17.5923331 C41.8059838,18.1591329 41.2026529,18.5871078 40.5019307,18.8672219 C39.792955,19.154729 38.9263375,19.2951968 37.8773176,19.2951968 C36.4090199,19.2951968 35.1775976,18.7127895 34.1871776,17.5446891 C33.1885041,16.388089 32.693294,14.9587678 32.693294,13.2649401 L32.693294,12.4434912 L32.693294,12.2709869 L43.2,12.2709869 L43.2,11.2178893 C43.2,9.50927553 42.70479,8.14567028 41.7052911,7.12789504 C40.7057922,6.11751284 39.4190715,5.6 37.8352248,5.6 C36.1944289,5.6 34.8061901,6.25715916 33.6837141,7.56326298 C32.561238,8.86115231 32,10.5056931 32,12.5001711 L32,13.3216201 C32,15.22081 32.577745,16.8037422 33.7414886,18.086024 C34.8969786,19.3592698 36.2835667,20 37.8773176,20 C38.951098,19.9991786 39.8829182,19.8348888 40.6678261,19.5227382 L40.6678261,19.5227382 Z" id="Shape"></path>
                    </g>
                    <g id="Group" transform="translate(47.200000, 0.000000)">
                        <path d="M10.3168,3.0088 C14.3424,3.0088 17.6104,6.2648 17.6104,10.2872 C17.6104,14.3032 14.3424,17.5656 10.3168,17.5656 C6.2912,17.5656 3.0232,14.3032 3.0232,10.2872 C3.0232,6.2656 6.2904,3.0088 10.3168,3.0088 L10.3168,3.0088 Z M10.3168,0.5672 C4.94,0.5672 0.5824,4.9192 0.5824,10.2872 C0.5824,15.6416 4.9248,19.9856 10.2864,20 L10.3168,20 L21.6,20 L21.6,17.584 L16.7384,17.584 C18.7664,15.8056 20.0512,13.1968 20.0512,10.2872 C20.0504,4.92 15.6936,0.5672 10.3168,0.5672 L10.3168,0.5672 Z" id="Shape" fill="#63B7EA"></path>
                        <path d="M13.308,16.9488 C13.308,16.9488 12.3472,17.5392 10.3168,17.5656 L16.7392,17.5968 L13.308,16.9488 L13.308,16.9488 Z" id="Shape" fill="#437EA8"></path>
                    </g>
                </g>
            </g>
        </g>
    </g>
</svg>