<?xml version="1.0" encoding="utf-8"?>
<!-- Generator: Adobe Illustrator 16.0.0, SVG Export Plug-In . SVG Version: 6.00 Build 0)  -->
<!DOCTYPE svg PUBLIC "-//W3C//DTD SVG 1.1//EN" "http://www.w3.org/Graphics/SVG/1.1/DTD/svg11.dtd">
<svg version="1.1" id="Layer_1" xmlns="http://www.w3.org/2000/svg" xmlns:xlink="http://www.w3.org/1999/xlink" x="0px" y="0px"
	 width="86px" height="25px" viewBox="0 0 86 25" enable-background="new 0 0 86 25" xml:space="preserve">
<g>
	<path fill="#444444" d="M12.13,16.33c0,2.33-0.47,4.18-1.4,5.55s-2.29,2.05-4.08,2.05c-1.48,0-2.72-0.33-3.7-0.99
		S1.27,21.4,0.85,20.3v-7.84c0.38-1.22,1.03-2.24,1.94-3.08C3.7,8.54,4.98,8.12,6.62,8.12c1.79,0,3.16,0.73,4.1,2.19
		c0.94,1.46,1.41,3.36,1.41,5.69V16.33z M13.01,16c0-2.67-0.57-4.8-1.7-6.37C10.17,8.05,8.6,7.26,6.6,7.26
		c-1.32,0-2.48,0.31-3.45,0.93C2.18,8.8,1.41,9.64,0.85,10.7V0H0v24.57h0.71l0.11-2.76c0.55,0.92,1.32,1.64,2.32,2.18
		c0.99,0.529,2.16,0.8,3.5,0.8c1.98,0,3.54-0.761,4.67-2.28c1.13-1.519,1.7-3.58,1.7-6.18V16z"/>
	<rect x="17.8" fill="#444444" width="0.85" height="24.57"/>
	<path fill="#444444" d="M35.78,24.57h0.7V7.48h-0.86v11.77c-0.26,1.41-0.87,2.54-1.81,3.4c-0.95,0.85-2.31,1.279-4.08,1.279
		c-1.44,0-2.59-0.551-3.43-1.641c-0.85-1.102-1.27-2.8-1.27-5.102V7.48h-0.85v9.68c0,2.6,0.49,4.529,1.48,5.77
		c0.99,1.24,2.36,1.86,4.1,1.86c1.42,0,2.62-0.29,3.61-0.87c0.98-0.58,1.74-1.41,2.28-2.48L35.78,24.57z"/>
	<path fill="#444444" d="M51.63,9.8c1.05,1.12,1.57,2.53,1.57,4.22v0.51H41.5l-0.05-0.09c0.15-1.81,0.78-3.31,1.9-4.508
		c1.11-1.21,2.52-1.81,4.2-1.81C49.23,8.12,50.59,8.68,51.63,9.8z M50.98,24.21c0.959-0.38,1.77-0.95,2.438-1.69l-0.448-0.66
		c-0.611,0.69-1.342,1.211-2.191,1.552c-0.859,0.35-1.909,0.521-3.18,0.521c-1.779,0-3.271-0.709-4.471-2.131
		c-1.21-1.408-1.81-3.148-1.81-5.21v-1v-0.21h12.73V14.1c0-2.08-0.6-3.74-1.811-4.979c-1.211-1.23-2.77-1.86-4.689-1.86
		c-1.988,0-3.67,0.8-5.03,2.39c-1.36,1.58-2.04,3.582-2.04,6.01v1c0,2.312,0.7,4.239,2.11,5.8c1.4,1.55,3.08,2.33,5.011,2.33
		C48.9,24.79,50.029,24.59,50.98,24.21z"/>
</g>
<g>
	<path fill="#63B7EA" d="M71.896,3.761c5.032,0,9.117,4.07,9.117,9.098c0,5.02-4.085,9.098-9.117,9.098s-9.117-4.078-9.117-9.098
		C62.779,7.832,66.863,3.761,71.896,3.761z M71.896,0.709c-6.721,0-12.168,5.44-12.168,12.15c0,6.693,5.428,12.123,12.13,12.141
		h0.038H86v-3.02h-6.077c2.535-2.223,4.141-5.484,4.141-9.121C84.063,6.15,78.617,0.709,71.896,0.709z"/>
	<g>
		<path fill="#437EA8" d="M75.635,21.186c0,0-1.201,0.738-3.739,0.771l8.028,0.039L75.635,21.186z"/>
	</g>
</g>
</svg>
