<svg xmlns="http://www.w3.org/2000/svg" xmlns:xlink="http://www.w3.org/1999/xlink" width="74px" height="65px" viewBox="1025 764 74 65" version="1.1">
  <desc>
    Created with Sketch.
  </desc>
  <defs/>
  <path d="M1098.89033 811.223598L1080.3889 764.970032C1080.10829 764.266978 1079.36515 763.875364 1078.62201 764.03571L1050.86987 770.202852C1050.395 770.307694 1050.04039 770.628385 1049.83996 771.032333 1049.83071 771.050834 1049.80912 771.057001 1049.79987 771.078586L1025.13131 826.582866C1024.92162 827.060819 1024.96479 827.612778 1025.24848 828.050645 1025.53217 828.491596 1026.01629 828.7537 1026.53741 828.7537L1040.94386 828.7537C1041.5174 828.7537 1042.04469 828.436092 1042.30988 827.927303 1045.7604 821.334628 1048.88405 808.291122 1050.79895 797.939574 1051.90904 808.096857 1053.90411 821.094109 1057.09869 827.868715 1057.35154 828.40834 1057.89733 828.7537 1058.49246 828.7537L1075.87455 828.7537C1076.17366 828.7537 1076.4481 828.648858 1076.6917 828.491596 1076.71637 828.476178 1076.74412 828.482345 1076.76879 828.466928L1098.35378 813.049072C1098.9335 812.635874 1099.15243 811.883482 1098.89033 811.223598L1098.89033 811.223598ZM1059.49462 825.670129C1055.06045 815.102731 1052.92353 790.014796 1052.75085 783.995666 1052.7231 783.163101 1052.04471 782.500134 1051.20907 782.500134 1050.37342 782.500134 1049.69195 783.163101 1049.66728 783.995666 1049.49152 789.872952 1044.97409 815.259993 1039.99412 825.670129L1028.91176 825.670129 1051.20598 775.503511 1073.5002 825.670129 1059.49462 825.670129 1059.49462 825.670129ZM1076.51902 824.856066L1053.38298 772.805386 1078.00838 767.332048 1095.57549 811.245183 1076.51902 824.856066 1076.51902 824.856066Z" id="Shape" stroke="none" fill="#FAC05E" fill-rule="evenodd"/>
</svg>
