<svg xmlns="http://www.w3.org/2000/svg" xmlns:xlink="http://www.w3.org/1999/xlink" width="70px" height="70px" viewBox="763 764 70 70" version="1.1">
  <desc>
    Created with Sketch.
  </desc>
  <defs/>
  <path d="M824.159531 793.175124C824.160686 793.174581 824.161501 793.173766 824.162656 793.173222 825.779858 792.420122 827.245706 791.393254 828.518626 790.11979 831.408748 787.229668 833 783.387404 833 779.300582 833 775.212673 831.408748 771.370409 828.518626 768.481374 825.628504 765.591252 821.78624 764 817.698874 764 813.611509 764 809.769245 765.591252 806.88021 768.480287 805.608648 769.750761 804.58212 771.215319 803.828204 772.83354 803.826914 772.836189 803.825012 772.838295 803.823789 772.841013 803.087944 774.418135 802.811322 776.132208 802.543396 777.790849 802.373633 778.841426 802.206247 779.851311 801.939476 780.806171 792.869191 772.806503 781.427245 764.943991 776.063292 770.308488 772.697031 773.674477 774.541875 779.442425 778.40581 785.561924 775.40849 786.820511 772.710481 788.629147 770.373806 790.965415 760.542065 800.796612 760.542065 816.794997 770.373806 826.626195 775.289404 831.542337 781.746256 833.999864 788.203652 833.999864 794.660504 833.999864 801.1179 831.542337 806.033498 826.626195 808.385731 824.273487 810.205032 821.554623 811.465588 818.531964 815.347593 820.971422 819.14577 822.651733 822.251985 822.651326 823.979645 822.650239 825.495356 822.131778 826.690425 820.936165 832.000373 815.626761 824.131203 804.147724 816.193897 795.088444 817.156705 794.814472 818.175353 794.640769 819.235237 794.464212 820.885726 794.190308 822.592191 793.906622 824.159531 793.175124L824.159531 793.175124ZM803.672707 824.265403C795.142553 832.795556 781.264751 832.795556 772.734597 824.265403 764.204987 815.735249 764.204987 801.856359 772.734597 793.326206 774.920055 791.141767 777.467389 789.489376 780.31057 788.393896 781.044581 789.422327 781.82268 790.451233 782.627138 791.472327 779.886807 792.352121 777.389675 793.860767 775.329077 795.921773 768.229855 803.020451 768.229855 814.571157 775.329077 821.669836 778.878416 825.219719 783.541306 826.99466 788.203652 826.99466 792.865998 826.99466 797.528888 825.219719 801.078227 821.669836 803.153295 819.594769 804.665473 817.08439 805.541871 814.327144 806.558209 815.122226 807.589765 815.894959 808.626687 816.630328 807.531139 819.497625 805.871751 822.065339 803.672707 824.265403L803.672707 824.265403ZM793.476848 803.522609C795.76991 805.815876 799.050848 808.955038 802.708336 812.027559 802.096672 814.785688 800.729733 817.296203 798.717435 819.309045 792.919801 825.106679 783.487503 825.106679 777.689868 819.309045 771.892777 813.512497 771.892777 804.079112 777.689868 798.282564 779.69055 796.282427 782.191758 794.912839 784.934195 794.296758 787.809983 797.695967 790.850711 800.896473 793.476848 803.522609L793.476848 803.522609ZM824.329634 818.575373C821.573747 821.325282 810.904533 816.228711 795.837639 801.161817 779.982184 785.305819 775.667109 775.426797 778.424083 772.669279 780.582368 770.510994 787.490021 772.366232 800.390478 783.902264 799.393296 785.103923 797.876227 786.129297 795.44363 786.909027 795.439283 786.910114 795.434935 786.9112 795.430587 786.912287 794.980602 787.034023 794.593115 787.255754 794.282256 787.568788 793.180118 788.669838 793.268702 790.412172 794.54529 792.747965 795.472977 794.444648 796.98434 796.380453 798.801672 798.197785 799.829899 799.226012 804.288447 803.490001 807.481277 803.490001 808.216035 803.490001 808.883948 803.263922 809.427408 802.720462 809.700225 802.449818 809.904023 802.120481 810.032823 801.744407 810.044779 801.708538 810.055648 801.67267 810.065431 801.636802 810.851478 799.178459 811.888604 797.647259 813.105548 796.640635 824.602655 809.590887 826.353344 816.551119 824.329634 818.575373L824.329634 818.575373ZM807.069334 800.069462C806.061758 799.767298 803.791725 798.466254 801.162464 795.836993 798.535376 793.209906 797.233789 790.941502 796.931081 789.93284 804.379749 787.354664 805.187331 782.35809 805.839483 778.32344 806.081731 776.82546 806.310052 775.410017 806.848961 774.253941 806.849504 774.252787 806.850319 774.251903 806.850863 774.250749 807.439974 772.984486 808.243752 771.837785 809.240458 770.842165 811.499622 768.582457 814.503871 767.33902 817.698874 767.33902 820.894421 767.33902 823.898126 768.582457 826.157835 770.842165 828.416999 773.100787 829.66098 776.105035 829.66098 779.300582 829.66098 782.495042 828.416999 785.49929 826.157835 787.758999 825.161468 788.755365 824.015718 789.55826 822.752784 790.147303 822.751085 790.148118 822.749319 790.148322 822.747621 790.149137 821.593855 790.687163 820.181945 790.921938 818.687429 791.170843 814.652236 791.841473 809.656748 792.672967 807.069334 800.069462L807.069334 800.069462Z" id="Shape" stroke="none" fill="#63B7EA" fill-rule="evenodd"/>
</svg>
