<svg xmlns="http://www.w3.org/2000/svg" xmlns:xlink="http://www.w3.org/1999/xlink" width="74px" height="53px" viewBox="1291 764 74 53" version="1.1">
  <desc>
    Created with Sketch.
  </desc>
  <defs/>
  <path d="M1363.42709 781.377872L1329.27198 764.300317C1328.47196 763.899894 1327.52804 763.899894 1326.72638 764.300317L1292.57291 781.377872C1291.60927 781.859694 1291 782.845539 1291 783.92265 1291 785.000583 1291.60927 785.986428 1292.57291 786.469072L1308.07673 794.220161 1308.07673 805.268361C1308.07673 805.710717 1308.18033 806.145672 1308.37767 806.543628 1308.58404 806.955561 1313.59878 816.654494 1328 816.654494 1342.40287 816.654494 1347.41596 806.955561 1347.62151 806.543628 1347.82049 806.146494 1347.92244 805.710717 1347.92244 805.268361L1347.92244 792.461428C1347.92244 791.474761 1347.41184 790.559628 1346.57318 790.040806 1345.73369 789.521983 1344.68536 789.475117 1343.80311 789.915828L1328 797.817383 1312.24704 789.941317C1312.21251 789.922406 1312.17633 789.905139 1312.14098 789.887872L1300.20971 783.92265 1328 770.027917 1355.78947 783.92265 1352.34271 785.64685C1350.93753 786.349028 1350.36691 788.05925 1351.07073 789.46525 1351.45224 790.231561 1352.13551 790.747094 1352.90347 790.94525L1352.90347 798.659339C1351.8946 798.965206 1351.15789 799.89185 1351.15789 801.000206 1351.15789 801.842983 1351.58298 802.582983 1352.22678 803.026983L1351.29191 809.947628C1351.29191 811.005828 1352.33202 811.862583 1353.61633 811.862583 1354.89982 811.862583 1355.93911 811.005828 1355.93911 809.947628L1355.00424 803.026983C1355.64887 802.582983 1356.07478 801.843806 1356.07478 801.000206 1356.07478 799.89185 1355.33642 798.965206 1354.32673 798.659339L1354.32673 790.946894C1354.51667 790.898383 1354.70496 790.828494 1354.88913 790.73805L1363.42791 786.469072C1364.39073 785.986428 1365 785.000583 1365 783.92265 1365 782.845539 1364.39073 781.859694 1363.42709 781.377872L1363.42709 781.377872ZM1313.7698 797.066694L1326.72638 803.545806C1327.52804 803.946228 1328.47113 803.946228 1329.27198 803.545806L1342.23184 797.066694 1342.23184 804.484783C1341.14733 806.111139 1337.14722 810.961428 1328 810.961428 1318.83222 810.961428 1314.83376 806.087294 1313.7698 804.488894L1313.7698 797.066694 1313.7698 797.066694Z" id="Shape" stroke="none" fill="#F79D84" fill-rule="evenodd"/>
</svg>
