<svg xmlns="http://www.w3.org/2000/svg" xmlns:xlink="http://www.w3.org/1999/xlink" width="70px" height="67px" viewBox="498 764 70 67" version="1.1">
  <desc>
    Created with Sketch.
  </desc>
  <defs/>
  <path d="M562.81814 779.920435C562.750802 779.783478 562.66743 779.664783 562.577645 779.543043 556.369675 770.22087 545.444801 764 532.993587 764 526.426477 764 520.298672 765.756087 515.04306 768.756957 514.88273 768.833043 514.73202 768.912174 514.594137 769.015652 504.653688 774.880435 498 785.310435 498 797.216522 498 810.294348 506.022904 821.591739 517.62437 827.015217 517.864865 827.173478 518.121393 827.301304 518.400366 827.371304 522.851122 829.31913 527.786074 830.436087 533 830.436087 551.883646 830.436087 567.281722 816.162174 567.935868 798.385217 567.964727 798.242174 567.958314 798.105217 567.958314 797.962174 567.964727 797.715652 568 797.466087 568 797.216522 567.993587 790.873913 566.079249 784.963478 562.81814 779.920435L562.81814 779.920435ZM533.230875 794.614348C529.562529 792.541739 526.724691 789.276087 524.566651 785.77 529.001374 783.536087 541.2153 778.824783 558.989464 782.963913 561.044892 786.33 562.417316 790.11913 562.872652 794.17 550.427852 789.40087 537.235914 793.214348 533.230875 794.614348L533.230875 794.614348ZM554.509849 777.333478C538.239579 774.907826 527.029317 779.177826 522.312414 781.57913 520.484654 777.674348 519.416858 774.034348 518.910215 772.031739 523.114063 769.904348 527.907925 768.69 532.993587 768.69 541.426935 768.69 549.045809 772.013478 554.509849 777.333478L554.509849 777.333478ZM514.526798 774.755652C516.235914 780.830435 520.792487 793.116957 530.723317 798.698696 530.976638 801.026957 531.140174 806.879565 527.718736 812.996957 510.823179 804.091739 507.369675 786.795652 506.83738 783.213478 508.79661 779.932609 511.416399 777.068696 514.526798 774.755652L514.526798 774.755652ZM502.941365 797.213478C502.941365 795.104348 503.204306 793.053043 503.662849 791.071739 506.138342 798.713913 511.900596 809.907826 524.983509 816.916957 523.389831 818.81 521.366468 820.651304 518.826844 822.355652 509.380211 817.543913 502.941365 808.081739 502.941365 797.213478L502.941365 797.213478ZM524.069629 824.455652C535.706367 815.261304 536.078333 803.440435 535.683921 798.771739 538.018323 798.02 542.533211 796.833043 547.814475 796.592609 547.61246 801.586957 545.983509 814.183913 535.517178 825.624348 534.683463 825.688261 533.846541 825.746087 532.993587 825.746087 529.889601 825.743043 526.891434 825.292609 524.069629 824.455652L524.069629 824.455652ZM543.039853 824.072174C551.207055 812.853913 552.595511 801.65087 552.768667 796.683913 556.12918 796.963913 559.608337 797.761304 562.943197 799.346957 562.038937 810.796522 554.003207 820.35913 543.039853 824.072174L543.039853 824.072174Z" id="Shape" stroke="none" fill="#59CD90" fill-rule="evenodd"/>
</svg>
